<?xml version="1.0" encoding="utf-8"?>
<!-- Generator: Adobe Illustrator 22.0.0, SVG Export Plug-In . SVG Version: 6.00 Build 0)  -->
<svg version="1.1" id="Layer_1" xmlns="http://www.w3.org/2000/svg" xmlns:xlink="http://www.w3.org/1999/xlink" x="0px" y="0px"
	 viewBox="0 0 21 127.4" style="enable-background:new 0 0 21 127.4;" xml:space="preserve">
<style type="text/css">
	.st0{fill:#FF931E;}
</style>
<path class="st0" d="M-0.4,7.2c-0.5,4.5,2.3,7.7,7.8,8.6c3.7,0.6,6.1,2.5,6,6.3c-0.1,3.6-2.3,5.4-5.8,6.1c-5.6,1.1-8.2,3.6-8,7.9
	c0.3,5.1,3.4,7.3,8.2,7.8c3.5,0.4,5.6,2.6,5.6,6.2c0,3.6-2.2,5.4-5.7,6.1c-5.6,1-8.3,3.6-8.1,7.9c0.2,5.1,3.4,7.3,8.2,7.8
	c3.5,0.4,5.6,2.6,5.6,6.2c0,3.6-2.3,5.4-5.8,6.1c-5.7,1-8.2,3.5-8,7.9c0.2,5.1,3.4,7.3,8.2,7.8c3.6,0.4,5.6,2.6,5.6,6.1
	c0,3.6-2.2,5.5-5.7,6.1c-5.8,1.1-8.4,3.9-8.1,8.3c0.3,4.7,3.7,7.3,9.6,7.3c3.8,0,7.6,0,11.4,0V0.3c-4,0-8,0-12,0
	C3.2,0.3,0,2.9-0.4,7.2z"/>
</svg>
