<?xml version="1.0" encoding="utf-8"?>
<!-- Generator: Adobe Illustrator 22.1.0, SVG Export Plug-In . SVG Version: 6.00 Build 0)  -->
<svg version="1.1" id="Layer_1" xmlns="http://www.w3.org/2000/svg" xmlns:xlink="http://www.w3.org/1999/xlink" x="0px" y="0px"
	 viewBox="0 0 26 187.2" style="enable-background:new 0 0 26 187.2;" xml:space="preserve">
<style type="text/css">
	.st0{fill:#FFB45C;}
</style>
<g>
	<path class="st0" d="M14.9-0.4C21-0.4,26,4.6,26,10.7v3.9c-9.4,0-17,7.6-17,17s7.6,17,17,17v7c-9.4,0-17,7.6-17,17s7.6,17,17,17v7
		c-9.4,0-17,7.6-17,17s7.6,17,17,17v7c-9.4,0-17,7.6-17,17s7.6,17,17,17v4.1c0,6.1-5,11.1-11.1,11.1H0L0-0.4H14.9z"/>
</g>
</svg>
